<?xml version="1.0" standalone="no"?>
<!DOCTYPE svg PUBLIC "-//W3C//DTD SVG 20010904//EN"
 "http://www.w3.org/TR/2001/REC-SVG-20010904/DTD/svg10.dtd">
<svg version="1.0" xmlns="http://www.w3.org/2000/svg"
 width="577.000000pt" height="433.000000pt" viewBox="0 0 577.000000 433.000000"
 preserveAspectRatio="xMidYMid meet">

<g transform="translate(0.000000,433.000000) scale(0.100000,-0.100000)"
fill="#000000" stroke="none">
<path d="M3247 2511 c-8 -17 -11 -29 -5 -28 6 1 13 -4 16 -12 2 -8 0 -11 -6
-8 -5 4 -14 1 -20 -6 -16 -20 -44 -126 -36 -138 4 -8 3 -9 -4 -5 -7 4 -12 2
-12 -3 0 -20 -37 -48 -86 -66 -27 -10 -54 -22 -60 -26 -5 -5 -21 -5 -34 -2
-15 4 -21 2 -17 -4 4 -6 0 -13 -7 -16 -10 -4 -14 0 -11 12 2 13 -7 23 -32 35
-19 9 -32 12 -29 7 3 -5 -3 -11 -14 -14 -11 -3 -23 0 -27 5 -3 6 -1 8 4 5 6
-4 13 0 17 8 4 11 -2 15 -20 15 -14 0 -22 4 -19 10 6 9 1 11 -33 14 -7 1 -17
8 -22 16 -5 8 -13 11 -17 6 -4 -5 -2 -11 5 -13 6 -3 12 -12 12 -21 0 -12 3
-13 12 -4 7 7 17 12 22 12 6 0 3 -5 -7 -11 -10 -6 -14 -16 -10 -22 3 -7 -3 -3
-15 7 -12 11 -22 14 -22 8 0 -7 -5 -12 -11 -12 -5 0 -9 8 -7 18 4 27 -15 29
-28 3 -7 -13 -17 -28 -23 -34 -15 -15 -14 -20 14 -53 16 -18 24 -36 20 -49 -2
-11 -12 -62 -22 -113 -11 -62 -22 -96 -32 -101 -9 -5 -51 -16 -93 -25 -87 -19
-108 -34 -108 -77 0 -23 6 -33 28 -42 56 -24 123 -73 127 -92 13 -62 35 -184
35 -193 0 -6 -18 -32 -40 -57 -45 -52 -50 -83 -19 -111 17 -16 37 -19 108 -19
l86 0 65 -52 c36 -29 93 -64 128 -79 l62 -27 -6 -77 c-6 -73 -5 -78 15 -85 36
-11 60 4 85 53 43 84 51 89 148 96 l86 6 53 -65 c29 -36 58 -65 65 -65 10 0
11 21 7 89 l-6 89 31 16 c18 9 55 37 83 62 32 28 58 44 68 41 9 -3 38 -13 65
-21 l48 -16 29 31 c30 32 39 82 18 95 -6 3 -19 20 -29 36 -17 29 -17 32 1 84
11 29 22 84 27 121 l7 68 78 41 c105 55 111 61 98 112 -11 39 -13 40 -64 46
-148 18 -145 16 -183 106 -24 56 -28 76 -25 148 2 70 -1 87 -18 111 -18 25
-27 29 -61 27 -42 -3 -74 -22 -63 -39 3 -5 1 -7 -5 -3 -6 3 -28 -4 -48 -16
-21 -12 -43 -23 -49 -24 -5 -1 -19 -5 -30 -9 -16 -6 -17 -5 -5 4 13 9 12 11
-6 11 -12 0 -33 9 -46 20 -14 10 -29 16 -33 12 -5 -4 -5 1 -2 10 3 9 -1 22 -8
28 -8 7 -12 16 -10 21 3 4 1 16 -5 26 -5 10 -19 44 -31 77 -16 43 -24 55 -31
45 -6 -10 -8 -1 -6 26 3 34 0 40 -18 43 -16 2 -26 -5 -37 -27z m49 7 c5 -8 2
-9 -9 -5 -10 3 -17 2 -17 -3 0 -6 5 -10 10 -10 13 0 13 -31 -1 -50 -8 -12 -10
-9 -6 12 2 15 -1 29 -6 31 -13 4 -2 37 12 37 5 0 13 -5 17 -12z m432 -253 c-3
-3 -9 2 -12 12 -6 14 -5 15 5 6 7 -7 10 -15 7 -18z m-953 -45 c20 -25 20 -25
0 -8 -16 13 -24 14 -40 6 -20 -11 -20 -11 -1 10 11 12 20 21 20 20 1 -2 10
-14 21 -28z m70 20 c3 -6 -1 -7 -9 -4 -18 7 -21 14 -7 14 6 0 13 -4 16 -10z
m-31 -68 c3 -5 -1 -9 -9 -9 -8 0 -12 4 -9 9 3 4 7 8 9 8 2 0 6 -4 9 -8z m-51
-17 c-3 -9 -8 -14 -10 -11 -3 3 -2 9 2 15 9 16 15 13 8 -4z m201 -7 c-3 -4
-11 -5 -19 -1 -21 7 -19 12 4 10 11 0 18 -5 15 -9z m379 -102 c56 -17 153 -90
191 -144 30 -44 56 -119 56 -164 0 -49 -40 -151 -81 -205 -54 -72 -134 -111
-246 -120 -79 -6 -86 -4 -147 26 -119 58 -186 148 -194 260 -16 229 206 412
421 347z"/>
</g>
</svg>
